<?xml version="1.0" standalone="no"?>
<!DOCTYPE svg PUBLIC "-//W3C//DTD SVG 20010904//EN"
 "http://www.w3.org/TR/2001/REC-SVG-20010904/DTD/svg10.dtd">
<svg version="1.0" xmlns="http://www.w3.org/2000/svg"
 width="268.000000pt" height="157.000000pt" viewBox="0 0 268.000000 157.000000"
 preserveAspectRatio="xMidYMid meet">

<g transform="translate(0.000000,157.000000) scale(0.100000,-0.100000)"
fill="#000000" stroke="none">
<path d="M32 783 l3 -748 1305 0 1305 0 3 748 2 747 -1310 0 -1310 0 2 -747z
m2598 -3 l0 -730 -1290 0 -1290 0 0 730 0 730 1290 0 1290 0 0 -730z"/>
<path d="M223 1361 c-87 -40 -99 -153 -21 -201 18 -10 73 -29 122 -40 143 -34
176 -60 176 -136 0 -140 -261 -171 -333 -39 -6 11 -14 36 -18 55 l-7 35 -1
-35 c-2 -74 62 -134 155 -146 148 -18 255 73 210 180 -20 47 -43 60 -170 94
-124 34 -157 54 -170 104 -11 46 14 93 64 119 44 24 139 25 187 2 39 -18 73
-65 73 -100 0 -13 4 -23 9 -23 13 0 -3 61 -23 92 -37 56 -170 76 -253 39z"/>
<path d="M803 1353 c-4 -10 -50 -125 -103 -255 -54 -131 -94 -238 -90 -238 5
0 23 38 42 85 l33 85 134 -2 134 -3 30 -80 c34 -89 35 -90 42 -83 7 7 -196
508 -206 508 -5 0 -13 -8 -16 -17z m80 -154 c32 -83 56 -153 54 -155 -2 -3
-59 -3 -125 -2 l-120 3 61 152 c34 84 64 153 67 153 3 0 31 -68 63 -151z"/>
<path d="M1132 1113 c1 -142 4 -203 5 -135 l4 122 125 0 c169 0 204 -19 204
-108 0 -54 11 -132 19 -132 4 0 3 41 -1 91 -8 99 -23 135 -63 145 -33 8 -32
16 4 32 86 38 86 185 0 229 -16 8 -72 13 -161 13 l-138 0 2 -257z m319 209
c51 -57 34 -153 -34 -189 -25 -14 -57 -18 -152 -18 l-120 0 -3 123 -3 124 142
-4 141 -3 29 -33z"/>
<path d="M1793 1353 c-4 -10 -50 -125 -103 -255 -54 -131 -94 -238 -90 -238 5
0 23 38 42 85 l33 85 134 -2 134 -3 30 -80 c34 -89 35 -90 42 -83 7 7 -196
508 -206 508 -5 0 -13 -8 -16 -17z m80 -154 c32 -83 56 -153 54 -155 -2 -3
-59 -3 -125 -2 l-120 3 61 152 c34 84 64 153 67 153 3 0 31 -68 63 -151z"/>
<path d="M2124 1115 c0 -143 2 -200 3 -127 l4 132 179 0 180 0 0 -130 c0 -80
4 -130 10 -130 6 0 10 92 10 255 0 163 -4 255 -10 255 -6 0 -10 -47 -10 -120
l0 -120 -180 0 -179 0 -4 123 c-1 67 -3 5 -3 -138z"/>
<path d="M727 727 c-175 -55 -221 -341 -76 -472 22 -19 44 -35 51 -35 6 0 -7
13 -29 29 -63 46 -88 107 -88 216 0 77 4 98 26 140 15 30 42 62 68 80 39 27
50 30 121 30 71 0 82 -3 121 -30 26 -18 53 -50 68 -80 22 -42 26 -63 26 -140
0 -109 -25 -170 -88 -216 -22 -16 -35 -29 -29 -29 24 0 91 72 112 123 32 73
32 182 0 255 -49 112 -165 165 -283 129z"/>
<path d="M2210 714 c-117 -50 -172 -200 -130 -349 39 -138 205 -204 339 -135
38 19 79 65 83 92 1 7 4 -16 8 -52 6 -55 7 -47 8 58 l2 122 -107 -2 -108 -2
103 -3 102 -4 0 -35 c0 -144 -171 -234 -310 -164 -80 41 -119 117 -120 231 0
65 4 85 28 130 81 156 313 159 383 4 13 -28 19 -34 19 -19 0 34 -57 104 -103
125 -51 23 -147 25 -197 3z"/>
<path d="M152 463 c1 -142 4 -206 5 -141 l4 116 127 4 c103 2 133 7 159 22 48
29 67 72 61 136 -5 44 -11 59 -37 82 -17 15 -39 28 -49 28 -10 -1 -3 -7 15
-15 55 -24 80 -106 50 -165 -7 -13 -28 -35 -46 -47 -31 -21 -45 -23 -157 -23
l-124 0 0 125 0 124 123 4 122 3 -127 2 -128 2 2 -257z"/>
<path d="M1132 463 c1 -142 4 -203 5 -135 l4 122 125 0 c169 0 204 -19 204
-108 0 -54 11 -132 19 -132 4 0 3 41 -1 91 -8 99 -23 135 -63 145 -33 8 -32
16 4 32 86 38 86 185 0 229 -16 8 -72 13 -161 13 l-138 0 2 -257z m319 209
c51 -57 34 -153 -34 -189 -25 -14 -57 -18 -152 -18 l-120 0 -3 123 -3 124 142
-4 141 -3 29 -33z"/>
<path d="M1723 713 c92 -2 167 -6 167 -8 0 -3 -79 -110 -175 -238 -96 -129
-175 -239 -175 -245 0 -9 51 -11 193 -10 l192 3 -183 2 c-155 3 -183 6 -178
18 3 8 80 114 171 235 91 121 168 227 172 235 4 13 -20 15 -173 13 l-179 -2
168 -3z"/>
<path d="M1974 465 c0 -143 2 -200 3 -127 2 73 2 190 0 260 -1 70 -3 10 -3
-133z"/>
<path d="M778 203 c12 -2 32 -2 45 0 12 2 2 4 -23 4 -25 0 -35 -2 -22 -4z"/>
</g>
</svg>
