<?xml version="1.0" standalone="no"?>
<!DOCTYPE svg PUBLIC "-//W3C//DTD SVG 20010904//EN"
 "http://www.w3.org/TR/2001/REC-SVG-20010904/DTD/svg10.dtd">
<svg version="1.0" xmlns="http://www.w3.org/2000/svg"
 width="270.000000pt" height="310.000000pt" viewBox="0 0 270.000000 310.000000"
 preserveAspectRatio="xMidYMid meet">
<metadata>
Created by potrace 1.14, written by Peter Selinger 2001-2017
</metadata>
<g transform="translate(0.000000,310.000000) scale(0.100000,-0.100000)"
fill="#000000" stroke="none">
<path d="M1330 2911 l0 -98 -82 -7 c-296 -25 -556 -142 -770 -345 -195 -185
-318 -407 -375 -674 -24 -113 -24 -371 0 -484 26 -121 63 -226 120 -337 192
-377 569 -633 995 -678 l112 -12 0 -93 c0 -76 3 -93 15 -93 12 0 15 17 15 93
l0 93 113 12 c146 15 277 52 405 112 136 65 227 127 334 229 195 185 318 407
375 674 24 113 24 371 0 484 -84 393 -330 715 -682 890 -143 72 -297 115 -462
129 l-83 7 0 98 c0 81 -3 99 -15 99 -12 0 -15 -18 -15 -99z m0 -1367 l0 -1237
-81 7 c-297 25 -559 147 -774 361 -178 178 -285 372 -341 625 -13 54 -17 122
-17 245 0 123 4 191 17 245 55 247 162 445 331 616 96 96 160 147 265 208 161
94 382 159 558 165 l42 1 0 -1236z m263 1210 c239 -50 445 -162 622 -339 179
-179 285 -372 341 -625 13 -54 17 -122 17 -245 0 -123 -4 -191 -17 -245 -56
-253 -162 -446 -341 -625 -214 -214 -476 -336 -774 -361 l-81 -7 0 1238 0
1238 83 -7 c45 -4 113 -14 150 -22z"/>
<path d="M682 2129 c-56 -11 -150 -54 -180 -82 -45 -42 -74 -104 -80 -172 -9
-123 37 -207 142 -258 31 -15 140 -48 243 -73 263 -63 332 -98 374 -189 25
-53 25 -156 0 -210 -25 -56 -97 -118 -167 -146 -80 -31 -279 -34 -364 -5 -140
48 -214 140 -229 285 -4 41 -11 66 -20 69 -11 4 -13 -9 -9 -71 6 -97 41 -170
109 -231 143 -129 460 -140 621 -21 72 53 101 111 106 211 4 72 1 89 -21 137
-44 97 -99 125 -379 196 -210 53 -274 79 -326 133 -37 39 -52 82 -52 151 0
155 144 257 363 257 214 -1 340 -94 363 -268 5 -37 11 -52 22 -52 38 0 -19
183 -76 243 -83 88 -273 129 -440 96z"/>
<path d="M1530 1541 c0 -501 2 -571 15 -571 13 0 15 35 15 259 l0 259 263 4
c241 4 266 6 317 26 70 28 123 71 158 130 25 44 27 55 27 157 0 128 -15 168
-86 228 -77 66 -100 71 -421 75 l-288 3 0 -570z m628 510 c103 -47 146 -127
141 -264 -4 -72 -8 -90 -34 -133 -36 -57 -111 -107 -187 -123 -27 -6 -155 -11
-283 -11 l-235 0 0 281 0 280 273 -3 c261 -3 274 -4 325 -27z"/>
</g>
</svg>
