<?xml version="1.0" standalone="no"?>
<!DOCTYPE svg PUBLIC "-//W3C//DTD SVG 20010904//EN"
 "http://www.w3.org/TR/2001/REC-SVG-20010904/DTD/svg10.dtd">
<svg version="1.0" xmlns="http://www.w3.org/2000/svg"
 width="269.000000pt" height="159.000000pt" viewBox="0 0 269.000000 159.000000"
 preserveAspectRatio="xMidYMid meet">
<metadata>
Created by potrace 1.13, written by Peter Selinger 2001-2015
</metadata>
<g transform="translate(0.000000,159.000000) scale(0.100000,-0.100000)"
fill="#000000" stroke="none">
<path d="M30 795 l0 -755 1310 0 1310 0 0 755 0 755 -1310 0 -1310 0 0 -755z
m2590 0 l0 -725 -1280 0 -1280 0 0 725 0 725 1280 0 1280 0 0 -725z"/>
<path d="M243 1351 c-49 -23 -73 -55 -80 -109 -6 -48 16 -96 56 -116 16 -9 67
-25 114 -37 132 -33 170 -66 153 -133 -15 -59 -126 -93 -211 -64 -43 14 -85
65 -85 104 0 19 -5 24 -26 24 -25 0 -26 -2 -21 -42 7 -49 32 -86 78 -113 49
-29 188 -29 243 1 52 27 79 76 73 132 -8 71 -54 105 -187 137 -116 27 -140 44
-140 96 0 58 52 99 127 99 59 0 117 -42 128 -91 5 -23 12 -29 32 -29 23 0 25
3 19 33 -20 103 -160 159 -273 108z"/>
<path d="M691 1111 c-55 -138 -101 -252 -101 -255 0 -3 11 -6 23 -6 20 0 28
11 54 78 l30 77 119 3 119 2 30 -80 c26 -73 31 -80 56 -80 l27 0 -58 148
c-152 386 -141 362 -170 362 -26 0 -31 -10 -129 -249z m178 65 c23 -60 41
-113 41 -117 0 -5 -43 -9 -95 -9 -52 0 -95 3 -95 7 0 22 96 249 102 240 3 -7
25 -61 47 -121z"/>
<path d="M1120 1106 l0 -256 25 0 25 0 0 115 0 115 113 0 c85 0 118 -4 134
-15 26 -18 43 -72 43 -137 0 -61 7 -78 35 -78 21 0 22 3 14 38 -5 20 -9 56 -9
80 0 55 -23 108 -49 117 -27 8 -27 19 2 32 49 22 72 116 43 172 -30 58 -56 66
-223 69 l-153 4 0 -256z m326 181 c42 -49 27 -124 -31 -152 -23 -10 -64 -15
-139 -15 l-106 0 0 101 0 101 126 -4 c124 -3 126 -3 150 -31z"/>
<path d="M1681 1111 c-55 -138 -101 -252 -101 -255 0 -3 11 -6 23 -6 20 0 28
11 54 78 l30 77 119 3 119 2 30 -80 c26 -73 31 -80 56 -80 l27 0 -58 148
c-152 386 -141 362 -170 362 -26 0 -31 -10 -129 -249z m178 65 c23 -60 41
-113 41 -117 0 -5 -43 -9 -95 -9 -52 0 -95 3 -95 7 0 22 96 249 102 240 3 -7
25 -61 47 -121z"/>
<path d="M2120 1105 l0 -255 25 0 25 0 0 125 0 125 155 0 155 0 0 -125 0 -125
25 0 25 0 0 255 0 255 -25 0 -25 0 0 -110 0 -110 -155 0 -155 0 0 110 0 110
-25 0 -25 0 0 -255z"/>
<path d="M725 705 c-59 -21 -120 -91 -141 -161 -38 -133 13 -273 121 -332 41
-23 179 -23 220 0 109 59 159 199 120 334 -40 137 -182 208 -320 159z m175
-47 c76 -39 117 -125 107 -229 -8 -93 -48 -154 -120 -184 -64 -27 -150 -13
-200 33 -52 47 -80 167 -58 248 25 91 100 154 186 154 22 0 61 -10 85 -22z"/>
<path d="M2265 705 c-86 -31 -155 -142 -155 -250 0 -148 106 -265 240 -265 57
0 107 19 144 54 37 34 46 31 46 -20 0 -15 6 -24 15 -24 13 0 15 21 15 130 l0
130 -105 0 c-98 0 -105 -1 -105 -20 0 -18 7 -20 85 -20 l85 0 0 -28 c0 -15
-10 -48 -22 -72 -32 -63 -91 -93 -171 -87 -69 6 -116 37 -149 100 -32 60 -32
184 0 244 41 77 120 115 207 99 42 -8 110 -66 119 -101 5 -18 13 -25 32 -25
22 0 24 3 18 23 -37 120 -169 178 -299 132z"/>
<path d="M160 455 l0 -255 25 0 25 0 0 110 0 110 108 0 c82 0 116 5 148 19 99
45 99 207 0 252 -33 15 -66 19 -173 19 l-133 0 0 -255z m287 195 c58 -35 57
-135 0 -171 -26 -15 -51 -19 -134 -19 l-103 0 0 105 0 105 103 0 c83 0 108 -4
134 -20z"/>
<path d="M1120 456 l0 -256 25 0 25 0 0 115 0 115 113 0 c85 0 118 -4 134 -15
26 -18 43 -72 43 -137 0 -61 7 -78 35 -78 21 0 22 3 14 38 -5 20 -9 56 -9 80
0 55 -23 108 -49 117 -27 8 -27 19 2 32 49 22 72 116 43 172 -30 58 -56 66
-223 69 l-153 4 0 -256z m326 181 c42 -49 27 -124 -31 -152 -23 -10 -64 -15
-139 -15 l-106 0 0 101 0 101 126 -4 c124 -3 126 -3 150 -31z"/>
<path d="M1560 690 c0 -18 8 -20 154 -22 l154 -3 -169 -213 c-93 -118 -169
-222 -169 -233 0 -18 9 -19 200 -19 193 0 200 1 200 20 0 19 -8 20 -169 22
l-169 3 169 213 c93 117 169 221 169 232 0 19 -7 20 -185 20 -178 0 -185 -1
-185 -20z"/>
<path d="M1980 455 l0 -255 25 0 25 0 0 255 0 255 -25 0 -25 0 0 -255z"/>
</g>
</svg>
